TITLE ""
FILE "Step1_Track33.mp3" MP3
  TRACK 01 AUDIO
    TITLE "Step1_Track33_01"
    INDEX 01 00:00:00
  TRACK 02 AUDIO
    TITLE "Step1_Track33_02"
    INDEX 01 00:00:22
  TRACK 03 AUDIO
    TITLE "Step1_Track33_03"
    INDEX 01 00:02:03
  TRACK 04 AUDIO
    TITLE "Step1_Track33_04"
    INDEX 01 00:02:56
  TRACK 05 AUDIO
    TITLE "Step1_Track33_05"
    INDEX 01 00:03:52
  TRACK 06 AUDIO
    TITLE "Step1_Track33_06"
    INDEX 01 00:03:75
  TRACK 07 AUDIO
    TITLE "Step1_Track33_07"
    INDEX 01 00:06:29
  TRACK 08 AUDIO
    TITLE "Step1_Track33_08"
    INDEX 01 00:06:58
  TRACK 09 AUDIO
    TITLE "Step1_Track33_09"
    INDEX 01 00:07:55
  TRACK 10 AUDIO
    TITLE "Step1_Track33_10"
    INDEX 01 00:07:57
  TRACK 11 AUDIO
    TITLE "Step1_Track33_11"
    INDEX 01 00:11:28
  TRACK 12 AUDIO
    TITLE "Step1_Track33_12"
    INDEX 01 00:11:47
  TRACK 13 AUDIO
    TITLE "Step1_Track33_13"
    INDEX 01 00:12:47
  TRACK 14 AUDIO
    TITLE "Step1_Track33_14"
    INDEX 01 00:12:57
  TRACK 15 AUDIO
    TITLE "Step1_Track33_15"
    INDEX 01 00:15:06
  TRACK 16 AUDIO
    TITLE "Step1_Track33_16"
    INDEX 01 00:15:31
  TRACK 17 AUDIO
    TITLE "Step1_Track33_17"
    INDEX 01 00:16:33
  TRACK 18 AUDIO
    TITLE "Step1_Track33_18"
    INDEX 01 00:16:45
  TRACK 19 AUDIO
    TITLE "Step1_Track33_19"
    INDEX 01 00:18:57
  TRACK 20 AUDIO
    TITLE "Step1_Track33_20"
    INDEX 01 00:19:21
  TRACK 21 AUDIO
    TITLE "Step1_Track33_21"
    INDEX 01 00:20:17
  TRACK 22 AUDIO
    TITLE "Step1_Track33_22"
    INDEX 01 00:20:37
  TRACK 23 AUDIO
    TITLE "Step1_Track33_23"
    INDEX 01 00:23:64
  TRACK 24 AUDIO
    TITLE "Step1_Track33_24"
    INDEX 01 00:24:05
  TRACK 25 AUDIO
    TITLE "Step1_Track33_25"
    INDEX 01 00:25:10
  TRACK 26 AUDIO
    TITLE "Step1_Track33_26"
    INDEX 01 00:25:26
  TRACK 27 AUDIO
    TITLE "Step1_Track33_27"
    INDEX 01 00:28:22
  TRACK 28 AUDIO
    TITLE "Step1_Track33_28"
    INDEX 01 00:28:48
  TRACK 29 AUDIO
    TITLE "Step1_Track33_29"
    INDEX 01 00:29:51
  TRACK 30 AUDIO
    TITLE "Step1_Track33_30"
    INDEX 01 00:29:73
  TRACK 31 AUDIO
    TITLE "Step1_Track33_31"
    INDEX 01 00:33:14
  TRACK 32 AUDIO
    TITLE "Step1_Track33_32"
    INDEX 01 00:33:41
  TRACK 33 AUDIO
    TITLE "Step1_Track33_33"
    INDEX 01 00:34:31
  TRACK 34 AUDIO
    TITLE "Step1_Track33_34"
    INDEX 01 00:34:48
  TRACK 35 AUDIO
    TITLE "Step1_Track33_35"
    INDEX 01 00:37:21
  TRACK 36 AUDIO
    TITLE "Step1_Track33_36"
    INDEX 01 00:37:51
  TRACK 37 AUDIO
    TITLE "Step1_Track33_37"
    INDEX 01 00:38:56
  TRACK 38 AUDIO
    TITLE "Step1_Track33_38"
    INDEX 01 00:38:58
  TRACK 39 AUDIO
    TITLE "Step1_Track33_39"
    INDEX 01 00:41:54
  TRACK 40 AUDIO
    TITLE "Step1_Track33_40"
    INDEX 01 00:42:05
  TRACK 41 AUDIO
    TITLE "Step1_Track33_41"
    INDEX 01 00:43:04
  TRACK 42 AUDIO
    TITLE "Step1_Track33_42"
    INDEX 01 00:43:12
  TRACK 43 AUDIO
    TITLE "Step1_Track33_43"
    INDEX 01 00:45:34
